<?xml version="1.0" encoding="UTF-8" standalone="no"?>
<!-- Created with Inkscape (http://www.inkscape.org/) -->

<svg
   version="1.1"
   id="svg2"
   width="425.84073"
   height="511.52863"
   viewBox="0 0 425.84073 511.52863"
   sodipodi:docname="avisos.svg"
   inkscape:export-filename="/home/nicolas/Documentos/Qt/FIAPanel/assets/avisos.png"
   inkscape:export-xdpi="96"
   inkscape:export-ydpi="96"
   inkscape:version="1.1.1 (3bf5ae0d25, 2021-09-20)"
   xmlns:inkscape="http://www.inkscape.org/namespaces/inkscape"
   xmlns:sodipodi="http://sodipodi.sourceforge.net/DTD/sodipodi-0.dtd"
   xmlns="http://www.w3.org/2000/svg"
   xmlns:svg="http://www.w3.org/2000/svg">
  <defs
     id="defs6" />
  <sodipodi:namedview
     id="namedview4"
     pagecolor="#ffffff"
     bordercolor="#666666"
     borderopacity="1.0"
     inkscape:pageshadow="2"
     inkscape:pageopacity="0.0"
     inkscape:pagecheckerboard="0"
     showgrid="false"
     fit-margin-top="0"
     fit-margin-left="0"
     fit-margin-right="0"
     fit-margin-bottom="0"
     inkscape:zoom="0.41308594"
     inkscape:cx="67.782506"
     inkscape:cy="29.049645"
     inkscape:window-width="1920"
     inkscape:window-height="1031"
     inkscape:window-x="0"
     inkscape:window-y="25"
     inkscape:window-maximized="1"
     inkscape:current-layer="g8" />
  <g
     inkscape:groupmode="layer"
     inkscape:label="Image"
     id="g8"
     transform="translate(-13.878033,-8.4491515)">
    <path
       style="fill:#e91c5d;fill-opacity:1"
       d="m 214.52642,519.33234 c -7.40895,-1.35508 -14.57855,-3.93468 -23.26339,-8.37012 -6.11075,-3.12083 -10.13812,-6.22056 -17.05384,-13.12576 -7.65914,-7.64748 -9.76822,-10.50349 -13.69134,-18.54006 -4.19657,-8.59674 -5.16969,-11.34222 -7.16397,-20.21167 l -0.60971,-2.71167 -57.740565,-0.28833 -57.74057,-0.28833 -5,-2.45723 c -7.30724,-3.59113 -13.78204,-10.51738 -16.45458,-17.60188 -1.81226,-4.80402 -2.15843,-7.37612 -1.80894,-13.44089 0.60336,-10.47053 2.96146,-14.46437 16.23689,-27.5 20.96632,-20.58758 33.86571,-41.43643 41.13588,-66.48655 5.32555,-18.3497 5.63684,-22.09618 6.39904,-77.01345 0.70175,-50.56234 0.76117,-51.69117 3.26374,-62 7.17863,-29.57096 19.707275,-52.06377 40.685495,-73.04308 16.53057,-16.531425 37.39198,-29.704099 56.29247,-35.54517 l 5.75,-1.776999 0.008,-14.067378 c 0.013,-24.146635 2.78184,-33.493322 12.92541,-43.63141 16.96809,-16.9589254 43.18514,-17.0554104 59.90196,-0.220455 10.36097,10.434189 13.13834,19.670488 13.16607,43.784487 l 0.0161,14 5.74145,1.791863 c 18.83529,5.87835 39.99899,19.284422 56.2502,35.631492 21.10816,21.23268 33.55728,43.57446 40.71922,73.07665 2.50257,10.30883 2.56199,11.43766 3.26374,62 0.7622,54.91727 1.07349,58.66375 6.39904,77.01345 7.36954,25.39249 19.58177,45.12002 41.16046,66.49024 10.28816,10.18878 12.44797,12.87819 14.28479,17.78752 5.88366,15.7255 -0.85374,33.15071 -15.62156,40.40264 l -5.71488,2.80615 -57.74057,0.28833 -57.74057,0.28833 -0.60971,2.71167 c -1.99428,8.86945 -2.9674,11.61493 -7.16397,20.21167 -3.92312,8.03657 -6.0322,10.89258 -13.69134,18.54006 -9.90457,9.8895 -18.95668,15.37509 -32.05384,19.42465 -7.85863,2.42983 -24.88572,3.50713 -32.73661,2.07123 z m 28.69194,-23.09486 c 11.00975,-3.40056 22.32815,-12.27217 28.80376,-22.577 2.3436,-3.72945 6.74091,-14.42872 6.74091,-16.40159 0,-0.60431 -19.35112,-0.96249 -52,-0.96249 -32.64888,0 -52,0.35818 -52,0.96249 0,0.52937 0.97036,3.56687 2.15635,6.75 10.04684,26.96504 38.52317,40.80767 66.29898,32.22859 z m 169.01037,-62.3623 c 5.36639,-2.24222 7.99946,-8.97258 5.40607,-13.81837 -0.62052,-1.15947 -5.92443,-6.86738 -11.78647,-12.68426 -26.00416,-25.80385 -41.9213,-55.94575 -48.62298,-92.07615 -1.45829,-7.86198 -1.88639,-18.29356 -2.48282,-60.5 -0.78179,-55.32229 -0.86376,-56.19442 -7.02324,-74.72251 -11.23888,-33.80722 -39.22699,-63.53551 -72.27472,-76.76846 -47.90322,-19.181376 -100.03051,-9.168886 -137.48314,26.40744 -14.21748,13.50522 -25.997,31.91007 -32.11785,50.18234 -6.242785,18.6363 -6.233445,18.53763 -7.041165,74.40119 -0.6155,42.5693 -1.04976,53.14741 -2.50422,61 -6.68891,36.1132 -22.51633,66.08403 -48.68478,92.18957 -5.89343,5.87927 -11.19571,11.58718 -11.78285,12.68426 -2.48088,4.63557 0.13146,11.43753 5.24719,13.66251 4.83634,2.10347 366.119365,2.14478 371.150975,0.0424 z M 247.76303,59.514276 c 0,-9.726141 -0.41437,-14.273841 -1.54773,-16.986352 -7.05719,-16.89024 -31.84735,-16.89024 -38.90454,0 -1.13336,2.712511 -1.54773,7.260211 -1.54773,16.986352 v 13.282119 h 21 21 z"
       id="path30" />
  </g>
</svg>
